<svg width="96" height="64" viewBox="0 0 96 64" fill="none" xmlns="http://www.w3.org/2000/svg">
<rect opacity="0.05" width="96" height="64" rx="8" fill="#E0E0E0"/>
<g clip-path="url(#clip0_1_480)">
<path d="M67.4018 36.8367C64.7296 47.5567 53.8685 54.0732 43.1638 51.4009C32.4435 48.7287 25.927 37.8681 28.5993 27.1635C31.2715 16.4435 42.1168 9.92698 52.8371 12.5993C63.5418 15.2559 70.0742 26.1165 67.4018 36.8367Z" fill="#E0E0E0"/>
<path d="M57.5231 29.5081C57.9138 26.8519 55.8981 25.4144 53.1169 24.4612L54.0231 20.8519L51.8356 20.305L50.9606 23.8206C50.3825 23.68 49.7888 23.5394 49.195 23.4144L50.07 19.8831L47.8825 19.3362L46.9919 22.93C46.5075 22.8206 46.0388 22.7112 45.5856 22.6019V22.5862L42.5544 21.8362L41.9763 24.18C41.9763 24.18 43.6013 24.555 43.57 24.5706C44.4606 24.7894 44.6169 25.3831 44.5856 25.8519L43.5544 29.9612C43.6169 29.9769 43.695 29.9925 43.7888 30.0394C43.7106 30.0237 43.6325 30.0081 43.5544 29.9769L42.1169 35.7269C42.0075 35.9925 41.7263 36.3987 41.1169 36.2425C41.1325 36.2737 39.5231 35.8519 39.5231 35.8519L38.4294 38.3675L41.2888 39.0862C41.82 39.2269 42.3356 39.3519 42.8513 39.4925L41.945 43.1331L44.1325 43.68L45.0388 40.0706C45.6325 40.2269 46.2263 40.3831 46.7888 40.5237L45.8981 44.1175L48.0856 44.6644L48.9919 41.0237C52.7419 41.7269 55.5544 41.4456 56.7263 38.055C57.6794 35.3362 56.6794 33.7581 54.7106 32.7269C56.1638 32.3987 57.2419 31.4456 57.5231 29.5081ZM52.5075 36.5394C51.8356 39.2581 47.2419 37.7894 45.7575 37.4144L46.9606 32.5862C48.445 32.9612 53.2263 33.6956 52.5075 36.5394ZM53.195 29.4612C52.57 31.9456 48.7575 30.68 47.5231 30.3675L48.6169 25.9925C49.8513 26.305 53.8356 26.8831 53.195 29.4612Z" fill="#0D0D2B"/>
</g>
<defs>
<clipPath id="clip0_1_480">
<rect width="40" height="40" fill="white" transform="translate(28 12)"/>
</clipPath>
</defs>
</svg>
