<svg width="40" height="40" viewBox="0 0 40 40" fill="none" xmlns="http://www.w3.org/2000/svg">
<path d="M19.9999 40C31.0456 40 39.9999 31.0457 39.9999 20C39.9999 8.9543 31.0456 0 19.9999 0C8.95424 0 -6.10352e-05 8.9543 -6.10352e-05 20C-6.10352e-05 31.0457 8.95424 40 19.9999 40Z" fill="white" fill-opacity="0.1"/>
<path d="M9.19643 27.8572C9.19643 26.2328 10.5184 24.9108 12.1429 24.9108C13.7673 24.9108 15.0893 26.2328 15.0893 27.8572C15.0893 29.4816 13.7673 30.8036 12.1429 30.8036C10.5184 30.8036 9.19643 29.4816 9.19643 27.8572ZM9.58929 27.8572C9.58929 29.2657 10.7344 30.4108 12.1429 30.4108C13.5513 30.4108 14.6964 29.2657 14.6964 27.8572C14.6964 26.4488 13.5513 25.3036 12.1429 25.3036C10.7344 25.3036 9.58929 26.4488 9.58929 27.8572Z" fill="white" fill-opacity="0.94" stroke="#C44047" stroke-width="0.392857"/>
<path d="M17.0535 27.8572C17.0535 26.2328 18.3755 24.9108 19.9999 24.9108C21.6243 24.9108 22.9463 26.2328 22.9463 27.8572C22.9463 29.4816 21.6243 30.8036 19.9999 30.8036C18.3755 30.8036 17.0535 29.4816 17.0535 27.8572ZM17.4463 27.8572C17.4463 29.2657 18.5915 30.4108 19.9999 30.4108C21.4084 30.4108 22.5535 29.2657 22.5535 27.8572C22.5535 26.4488 21.4084 25.3036 19.9999 25.3036C18.5915 25.3036 17.4463 26.4488 17.4463 27.8572Z" fill="white" fill-opacity="0.94" stroke="#C44047" stroke-width="0.392857"/>
<path d="M24.9107 27.8572C24.9107 26.2328 26.2327 24.9108 27.8572 24.9108C29.4816 24.9108 30.8036 26.2328 30.8036 27.8572C30.8036 29.4816 29.4816 30.8036 27.8572 30.8036C26.2327 30.8036 24.9107 29.4816 24.9107 27.8572ZM25.3036 27.8572C25.3036 29.2657 26.4487 30.4108 27.8572 30.4108C29.2656 30.4108 30.4107 29.2657 30.4107 27.8572C30.4107 26.4488 29.2656 25.3036 27.8572 25.3036C26.4487 25.3036 25.3036 26.4488 25.3036 27.8572Z" fill="white" fill-opacity="0.94" stroke="#C44047" stroke-width="0.392857"/>
<path d="M9.19643 20C9.19643 18.3756 10.5184 17.0536 12.1429 17.0536C13.7673 17.0536 15.0893 18.3756 15.0893 20C15.0893 21.6244 13.7673 22.9465 12.1429 22.9465C10.5184 22.9465 9.19643 21.6244 9.19643 20ZM9.58929 20C9.58929 21.4085 10.7344 22.5536 12.1429 22.5536C13.5513 22.5536 14.6964 21.4085 14.6964 20C14.6964 18.5916 13.5513 17.4465 12.1429 17.4465C10.7344 17.4465 9.58929 18.5916 9.58929 20Z" fill="white" fill-opacity="0.94" stroke="#C44047" stroke-width="0.392857"/>
<path d="M17.0535 20C17.0535 18.3756 18.3755 17.0536 19.9999 17.0536C21.6243 17.0536 22.9463 18.3756 22.9463 20C22.9463 21.6244 21.6243 22.9465 19.9999 22.9465C18.3755 22.9465 17.0535 21.6244 17.0535 20ZM17.4463 20C17.4463 21.4085 18.5915 22.5536 19.9999 22.5536C21.4084 22.5536 22.5535 21.4085 22.5535 20C22.5535 18.5916 21.4084 17.4465 19.9999 17.4465C18.5915 17.4465 17.4463 18.5916 17.4463 20Z" fill="white" fill-opacity="0.94" stroke="#C44047" stroke-width="0.392857"/>
<path d="M24.9107 20C24.9107 18.3756 26.2327 17.0536 27.8572 17.0536C29.4816 17.0536 30.8036 18.3756 30.8036 20C30.8036 21.6244 29.4816 22.9465 27.8572 22.9465C26.2327 22.9465 24.9107 21.6244 24.9107 20ZM25.3036 20C25.3036 21.4085 26.4487 22.5536 27.8572 22.5536C29.2656 22.5536 30.4107 21.4085 30.4107 20C30.4107 18.5916 29.2656 17.4465 27.8572 17.4465C26.4487 17.4465 25.3036 18.5916 25.3036 20Z" fill="white" fill-opacity="0.94" stroke="#C44047" stroke-width="0.392857"/>
<path d="M9.19643 12.1429C9.19643 10.5184 10.5184 9.19643 12.1429 9.19643C13.7673 9.19643 15.0893 10.5184 15.0893 12.1429C15.0893 13.7673 13.7673 15.0893 12.1429 15.0893C10.5184 15.0893 9.19643 13.7673 9.19643 12.1429ZM9.58929 12.1429C9.58929 13.5513 10.7344 14.6964 12.1429 14.6964C13.5513 14.6964 14.6964 13.5513 14.6964 12.1429C14.6964 10.7344 13.5513 9.58929 12.1429 9.58929C10.7344 9.58929 9.58929 10.7344 9.58929 12.1429Z" fill="white" fill-opacity="0.94" stroke="#C44047" stroke-width="0.392857"/>
<path d="M17.0535 12.1429C17.0535 10.5184 18.3755 9.19643 19.9999 9.19643C21.6243 9.19643 22.9463 10.5184 22.9463 12.1429C22.9463 13.7673 21.6243 15.0893 19.9999 15.0893C18.3755 15.0893 17.0535 13.7673 17.0535 12.1429ZM17.4463 12.1429C17.4463 13.5513 18.5915 14.6964 19.9999 14.6964C21.4084 14.6964 22.5535 13.5513 22.5535 12.1429C22.5535 10.7344 21.4084 9.58929 19.9999 9.58929C18.5915 9.58929 17.4463 10.7344 17.4463 12.1429Z" fill="white" fill-opacity="0.94" stroke="#C44047" stroke-width="0.392857"/>
<path d="M30.8036 12.1429C30.8036 13.7673 29.4816 15.0893 27.8572 15.0893C26.2327 15.0893 24.9107 13.7673 24.9107 12.1429C24.9107 10.5184 26.2327 9.19643 27.8572 9.19643C29.4816 9.19643 30.8036 10.5184 30.8036 12.1429ZM30.4107 12.1429C30.4107 10.7344 29.2656 9.58929 27.8572 9.58929C26.4487 9.58929 25.3036 10.7344 25.3036 12.1429C25.3036 13.5513 26.4487 14.6964 27.8572 14.6964C29.2656 14.6964 30.4107 13.5513 30.4107 12.1429Z" fill="white" fill-opacity="0.94" stroke="#C44047" stroke-width="0.392857"/>
</svg>
